<svg width="23" height="20" viewBox="0 0 23 20" fill="none" xmlns="http://www.w3.org/2000/svg">
<g clip-path="url(#clip0_442_16170)">
<path fill-rule="evenodd" clip-rule="evenodd" d="M1.43817 9.99981C1.43817 10.1656 1.51389 10.3245 1.64869 10.4418C1.78348 10.559 1.96629 10.6248 2.15692 10.6248L19.1094 10.6248L14.5855 14.5573C14.4506 14.6747 14.3748 14.8338 14.3748 14.9998C14.3748 15.1658 14.4506 15.325 14.5855 15.4423C14.7205 15.5597 14.9036 15.6256 15.0944 15.6256C15.2853 15.6256 15.4683 15.5597 15.6033 15.4423L21.3533 10.4423C21.4202 10.3843 21.4733 10.3153 21.5096 10.2394C21.5458 10.1634 21.5645 10.082 21.5645 9.99981C21.5645 9.9176 21.5458 9.8362 21.5096 9.76027C21.4733 9.68434 21.4202 9.61537 21.3533 9.55731L15.6033 4.55731C15.5365 4.4992 15.4571 4.45311 15.3698 4.42166C15.2825 4.39021 15.1889 4.37402 15.0944 4.37402C14.9036 4.37402 14.7205 4.43995 14.5855 4.55731C14.4506 4.67467 14.3748 4.83384 14.3748 4.99981C14.3748 5.16578 14.4506 5.32495 14.5855 5.44231L19.1094 9.37481L2.15692 9.37481C1.9663 9.37481 1.78348 9.44066 1.64869 9.55787C1.51389 9.67508 1.43817 9.83405 1.43817 9.99981Z" fill="white"/>
</g>
<defs>
<clipPath id="clip0_442_16170">
<rect width="20" height="23" fill="white" transform="translate(23) rotate(90)"/>
</clipPath>
</defs>
</svg>
