<svg width="35" height="36" viewBox="0 0 35 36" fill="none" xmlns="http://www.w3.org/2000/svg">
<path d="M0 8.99431C0 7.83265 0.460936 6.71856 1.28141 5.89714C2.10188 5.07573 3.21468 4.61426 4.375 4.61426H30.625C31.7853 4.61426 32.8981 5.07573 33.7186 5.89714C34.5391 6.71856 35 7.83265 35 8.99431V26.5145C35 27.6762 34.5391 28.7903 33.7186 29.6117C32.8981 30.4331 31.7853 30.8946 30.625 30.8946H4.375C3.21468 30.8946 2.10188 30.4331 1.28141 29.6117C0.460936 28.7903 0 27.6762 0 26.5145V8.99431ZM4.375 6.80428C3.79484 6.80428 3.23844 7.03502 2.8282 7.44573C2.41797 7.85644 2.1875 8.41348 2.1875 8.99431V11.1843H32.8125V8.99431C32.8125 8.41348 32.582 7.85644 32.1718 7.44573C31.7616 7.03502 31.2052 6.80428 30.625 6.80428H4.375ZM32.8125 15.5644H2.1875V26.5145C2.1875 27.0953 2.41797 27.6524 2.8282 28.0631C3.23844 28.4738 3.79484 28.7045 4.375 28.7045H30.625C31.2052 28.7045 31.7616 28.4738 32.1718 28.0631C32.582 27.6524 32.8125 27.0953 32.8125 26.5145V15.5644Z" fill="#2A2A2A"/>
<path d="M4.375 22.1344C4.375 21.5535 4.60547 20.9965 5.0157 20.5858C5.42594 20.1751 5.98234 19.9443 6.5625 19.9443H8.75C9.33016 19.9443 9.88656 20.1751 10.2968 20.5858C10.707 20.9965 10.9375 21.5535 10.9375 22.1344V24.3244C10.9375 24.9052 10.707 25.4623 10.2968 25.873C9.88656 26.2837 9.33016 26.5144 8.75 26.5144H6.5625C5.98234 26.5144 5.42594 26.2837 5.0157 25.873C4.60547 25.4623 4.375 24.9052 4.375 24.3244V22.1344Z" fill="#2A2A2A"/>
</svg>
