<svg width="38" height="39" viewBox="0 0 38 39" fill="none" xmlns="http://www.w3.org/2000/svg">
<path d="M4.75 19.043H19V21.4207H4.75V19.043Z" fill="#2A2A2A"/>
<path d="M2.375 13.0977H14.25V15.4754H2.375V13.0977Z" fill="#2A2A2A"/>
<path d="M35.529 19.7625L31.9665 11.4404C31.8751 11.2265 31.7229 11.0442 31.5289 10.9161C31.3349 10.788 31.1076 10.7198 30.8752 10.7199H27.3127V8.34219C27.3127 8.02688 27.1876 7.72449 26.9649 7.50153C26.7422 7.27858 26.4402 7.15332 26.1252 7.15332H7.12521V9.53107H24.9377V24.4586C24.3966 24.7731 23.9231 25.1918 23.5444 25.6905C23.1657 26.1892 22.8894 26.758 22.7313 27.3642H15.2691C14.9801 26.2435 14.2927 25.2668 13.3358 24.6172C12.379 23.9675 11.2183 23.6896 10.0714 23.8355C8.9245 23.9813 7.87009 24.5409 7.10583 25.4094C6.34157 26.2779 5.91992 27.3956 5.91992 28.553C5.91992 29.7105 6.34157 30.8282 7.10583 31.6967C7.87009 32.5652 8.9245 33.1248 10.0714 33.2706C11.2183 33.4165 12.379 33.1385 13.3358 32.4889C14.2927 31.8393 14.9801 30.8626 15.2691 29.7419H22.7313C22.9897 30.7623 23.5804 31.6672 24.4102 32.3137C25.24 32.9601 26.2613 33.3111 27.3127 33.3111C28.3641 33.3111 29.3855 32.9601 30.2152 32.3137C31.045 31.6672 31.6358 30.7623 31.8941 29.7419H34.4377C34.7527 29.7419 35.0547 29.6167 35.2774 29.3937C35.5001 29.1707 35.6252 28.8684 35.6252 28.553V20.2309C35.6253 20.0699 35.5925 19.9105 35.529 19.7625ZM10.6877 30.9308C10.218 30.9308 9.7588 30.7913 9.36824 30.5301C8.97767 30.2688 8.67326 29.8974 8.4935 29.463C8.31374 29.0285 8.26671 28.5504 8.35835 28.0892C8.44999 27.6279 8.67619 27.2043 9.00834 26.8717C9.34049 26.5392 9.76367 26.3127 10.2244 26.221C10.6851 26.1292 11.1626 26.1763 11.5966 26.3563C12.0306 26.5363 12.4015 26.841 12.6625 27.232C12.9234 27.6231 13.0627 28.0828 13.0627 28.553C13.0621 29.1835 12.8117 29.7879 12.3664 30.2337C11.9211 30.6794 11.3174 30.9302 10.6877 30.9308ZM27.3127 13.0977H30.0915L32.6375 19.0421H27.3127V13.0977ZM27.3127 30.9308C26.843 30.9308 26.3838 30.7913 25.9932 30.5301C25.6027 30.2688 25.2983 29.8974 25.1185 29.463C24.9387 29.0285 24.8917 28.5504 24.9833 28.0892C25.075 27.6279 25.3012 27.2043 25.6333 26.8717C25.9655 26.5392 26.3887 26.3127 26.8494 26.221C27.3101 26.1292 27.7876 26.1763 28.2216 26.3563C28.6556 26.5363 29.0265 26.841 29.2875 27.232C29.5484 27.6231 29.6877 28.0828 29.6877 28.553C29.6871 29.1835 29.4367 29.7879 28.9914 30.2337C28.5461 30.6794 27.9424 30.9302 27.3127 30.9308ZM33.2502 27.3642H31.8941C31.6325 26.3458 31.0408 25.4432 30.2117 24.7977C29.3826 24.1522 28.363 23.8005 27.3127 23.7976V21.4198H33.2502V27.3642Z" fill="#2A2A2A"/>
</svg>
