<svg width="38" height="40" viewBox="0 0 38 40" fill="none" xmlns="http://www.w3.org/2000/svg">
<path d="M12.0837 4.1875C10.342 4.1875 8.91699 5.65169 8.91699 7.44125V31.8444C8.91699 32.7074 9.25062 33.535 9.84449 34.1452C10.4384 34.7554 11.2438 35.0982 12.0837 35.0982V36.725H15.2503V35.0982H24.7503V36.725H27.917V35.0982C29.6745 35.0982 31.0837 33.6502 31.0837 31.8444V7.44125C31.0837 6.5783 30.75 5.7507 30.1562 5.1405C29.5623 4.53031 28.7568 4.1875 27.917 4.1875H12.0837ZM12.0837 7.44125H27.917V12.3219H12.0837V7.44125ZM12.0837 15.5756H27.917V20.4563H12.0837V15.5756ZM12.0837 23.71H18.417V31.8444H12.0837V23.71ZM21.5837 23.71H27.917V31.8444H21.5837V23.71ZM13.667 25.3369V30.2175H16.8337V25.3369H13.667ZM23.167 25.3369V30.2175H26.3337V25.3369H23.167Z" fill="#2A2A2A"/>
</svg>
