<svg width="34" height="35" viewBox="0 0 34 35" fill="none" xmlns="http://www.w3.org/2000/svg">
<g clip-path="url(#clip0_442_15572)">
<path fill-rule="evenodd" clip-rule="evenodd" d="M18.2412 0.929209C17.8643 0.711365 17.4368 0.59668 17.0016 0.59668C16.5664 0.59668 16.1389 0.711365 15.762 0.929209L4.07454 7.68318C3.69778 7.90095 3.38488 8.21416 3.1673 8.59133C2.94971 8.9685 2.8351 9.39635 2.83496 9.83191V23.3413C2.83496 24.2277 3.30813 25.0475 4.07454 25.49L15.762 32.2454C16.1389 32.4632 16.5664 32.5779 17.0016 32.5779C17.4368 32.5779 17.8643 32.4632 18.2412 32.2454L29.9287 25.4914C30.3057 25.2735 30.6187 24.9601 30.8363 24.5826C31.0539 24.2052 31.1684 23.7771 31.1683 23.3413V9.83191C31.1682 9.39635 31.0535 8.9685 30.836 8.59133C30.6184 8.21416 30.3055 7.90095 29.9287 7.68318L18.2412 0.927791V0.929209ZM16.8245 2.77017C16.8784 2.73905 16.9395 2.72266 17.0016 2.72266C17.0638 2.72266 17.1249 2.73905 17.1787 2.77017L27.9808 9.01355L17.0016 15.359L6.02246 9.01355L16.8245 2.77017ZM4.95996 10.8573V23.3427C4.95996 23.4703 5.02796 23.5866 5.13704 23.649L15.9391 29.8924V17.2028L4.95996 10.8573ZM18.0641 29.8924L28.8662 23.649C28.9199 23.618 28.9646 23.5733 28.9957 23.5196C29.0267 23.4658 29.0432 23.4048 29.0433 23.3427V10.8559L18.0641 17.2014V29.891V29.8924Z" fill="#2A2A2A"/>
</g>
<defs>
<clipPath id="clip0_442_15572">
<rect width="34" height="34.0393" fill="white" transform="translate(0 0.0224609)"/>
</clipPath>
</defs>
</svg>
