<svg width="36" height="36" viewBox="0 0 36 36" fill="none" xmlns="http://www.w3.org/2000/svg">
<path d="M19.7998 20.6998V26.0998C19.7998 26.3385 19.8946 26.5674 20.0634 26.7362C20.2322 26.905 20.4611 26.9998 20.6998 26.9998H26.0998C26.3385 26.9998 26.5674 26.905 26.7362 26.7362C26.905 26.5674 26.9998 26.3385 26.9998 26.0998V20.6998C26.9998 20.4611 26.905 20.2322 26.7362 20.0634C26.5674 19.8946 26.3385 19.7998 26.0998 19.7998H20.6998C20.4611 19.7998 20.2322 19.8946 20.0634 20.0634C19.8946 20.2322 19.7998 20.4611 19.7998 20.6998ZM21.5998 25.1998V21.5998H25.1998V25.1998H21.5998Z" fill="#2A2A2A"/>
<path d="M8.99961 3.59961C8.86769 3.59966 8.7374 3.62871 8.61796 3.6847C8.49851 3.74069 8.39284 3.82225 8.30841 3.92361L3.80841 9.32361C3.67359 9.48528 3.5997 9.6891 3.59961 9.89961V12.5996C3.59961 14.198 4.29441 15.6362 5.39961 16.6244V31.4996C5.39961 31.7383 5.49443 31.9672 5.66321 32.136C5.832 32.3048 6.06091 32.3996 6.29961 32.3996H29.6996C29.9383 32.3996 30.1672 32.3048 30.336 32.136C30.5048 31.9672 30.5996 31.7383 30.5996 31.4996V16.6244C31.7048 15.6344 32.3996 14.198 32.3996 12.5996V9.89961V9.86721C32.3996 9.70521 32.3996 9.57561 32.1908 9.32361L27.6908 3.92361C27.6064 3.82225 27.5007 3.74069 27.3813 3.6847C27.2618 3.62871 27.1315 3.59966 26.9996 3.59961H8.99961ZM8.99961 16.1996C8.04483 16.1996 7.12916 15.8203 6.45402 15.1452C5.77889 14.4701 5.39961 13.5544 5.39961 12.5996V10.7996H12.5996V12.5996C12.5996 13.5544 12.2203 14.4701 11.5452 15.1452C10.8701 15.8203 9.95439 16.1996 8.99961 16.1996ZM17.9996 16.1996C17.0448 16.1996 16.1292 15.8203 15.454 15.1452C14.7789 14.4701 14.3996 13.5544 14.3996 12.5996V10.7996H21.5996V12.5996C21.5996 13.5544 21.2203 14.4701 20.5452 15.1452C19.8701 15.8203 18.9544 16.1996 17.9996 16.1996ZM26.9996 16.1996C26.0448 16.1996 25.1292 15.8203 24.454 15.1452C23.7789 14.4701 23.3996 13.5544 23.3996 12.5996V10.7996H30.5996V12.5996C30.5996 13.5544 30.2203 14.4701 29.5452 15.1452C28.8701 15.8203 27.9544 16.1996 26.9996 16.1996ZM8.99961 30.5996H7.19961V17.6936C8.33415 18.0958 9.57059 18.1069 10.7122 17.7253C11.8538 17.3437 12.835 16.5912 13.4996 15.5876C13.9922 16.33 14.661 16.9388 15.4462 17.3597C16.2314 17.7806 17.1087 18.0004 17.9996 17.9996C18.8907 18.0002 19.7681 17.7801 20.5533 17.3589C21.3386 16.9377 22.0072 16.3285 22.4996 15.5858C23.1642 16.5894 24.1454 17.3419 25.287 17.7235C26.4286 18.1051 27.6651 18.094 28.7996 17.6918V30.5996H17.9996V20.6996C17.9996 20.4609 17.9048 20.232 17.736 20.0632C17.5672 19.8944 17.3383 19.7996 17.0996 19.7996H9.89961C9.66091 19.7996 9.432 19.8944 9.26321 20.0632C9.09443 20.232 8.99961 20.4609 8.99961 20.6996V30.5996ZM12.8516 8.99961H6.42201L9.42081 5.39961H14.0504L12.8516 8.99961ZM21.2504 8.99961H14.7488L15.9476 5.39961H20.0516L21.2504 8.99961ZM23.1476 8.99961L21.9488 5.39961H26.5784L29.579 8.99961H23.1476ZM10.7996 30.5996V21.5996H16.1996V30.5996H10.7996Z" fill="#2A2A2A"/>
</svg>
