<svg width="16" height="16" viewBox="0 0 16 16" fill="none" xmlns="http://www.w3.org/2000/svg">
<path fill-rule="evenodd" clip-rule="evenodd" d="M15 7.99937C15 8.13198 14.9473 8.25915 14.8536 8.35292C14.7598 8.44669 14.6326 8.49937 14.5 8.49937L2.707 8.49937L5.854 11.6454C5.94789 11.7393 6.00063 11.8666 6.00063 11.9994C6.00063 12.1321 5.94789 12.2595 5.854 12.3534C5.76011 12.4473 5.63278 12.5 5.5 12.5C5.36722 12.5 5.23989 12.4473 5.146 12.3534L1.146 8.35337C1.09944 8.30692 1.06249 8.25175 1.03729 8.191C1.01208 8.13026 0.999106 8.06514 0.999106 7.99937C0.999106 7.9336 1.01208 7.86848 1.03729 7.80774C1.06249 7.74699 1.09944 7.69181 1.146 7.64537L5.146 3.64537C5.23989 3.55148 5.36722 3.49874 5.5 3.49874C5.63278 3.49874 5.76011 3.55148 5.854 3.64537C5.94789 3.73925 6.00063 3.86659 6.00063 3.99937C6.00063 4.13214 5.94789 4.25948 5.854 4.35337L2.707 7.49937L14.5 7.49937C14.6326 7.49937 14.7598 7.55205 14.8536 7.64581C14.9473 7.73958 15 7.86676 15 7.99937Z" fill="#2A2A2A"/>
</svg>
