<svg width="22" height="22" viewBox="0 0 22 22" fill="none" xmlns="http://www.w3.org/2000/svg">
<path d="M3.89612 5.14185C5.74779 7.51602 9.16695 11.916 9.16695 11.916V17.416C9.16695 17.9202 9.57945 18.3327 10.0836 18.3327H11.917C12.4211 18.3327 12.8336 17.9202 12.8336 17.416V11.916C12.8336 11.916 16.2436 7.51602 18.0953 5.14185C18.2003 5.00652 18.2653 4.84442 18.2827 4.67399C18.3002 4.50356 18.2694 4.33166 18.1939 4.17786C18.1185 4.02405 18.0013 3.89453 17.8559 3.80404C17.7104 3.71355 17.5424 3.66573 17.3711 3.66602H4.62029C3.85945 3.66602 3.42862 4.53685 3.89612 5.14185Z" fill="#2A2A2A"/>
</svg>
