<svg width="16" height="13" viewBox="0 0 16 13" fill="none" xmlns="http://www.w3.org/2000/svg">
<g filter="url(#filter0_d_546_7374)">
<path fill-rule="evenodd" clip-rule="evenodd" d="M15 4.99937C15 5.13198 14.9473 5.25915 14.8536 5.35292C14.7598 5.44669 14.6326 5.49937 14.5 5.49937L2.707 5.49937L5.854 8.64537C5.94789 8.73925 6.00063 8.86659 6.00063 8.99937C6.00063 9.13214 5.94789 9.25948 5.854 9.35337C5.76011 9.44726 5.63278 9.5 5.5 9.5C5.36722 9.5 5.23989 9.44726 5.146 9.35337L1.146 5.35337C1.09944 5.30692 1.06249 5.25175 1.03729 5.191C1.01208 5.13026 0.999106 5.06514 0.999106 4.99937C0.999106 4.9336 1.01208 4.86848 1.03729 4.80774C1.06249 4.74699 1.09944 4.69181 1.146 4.64537L5.146 0.645369C5.23989 0.551482 5.36722 0.498737 5.5 0.498737C5.63278 0.498737 5.76011 0.551482 5.854 0.645369C5.94789 0.739255 6.00063 0.866593 6.00063 0.999369C6.00063 1.13214 5.94789 1.25948 5.854 1.35337L2.707 4.49937L14.5 4.49937C14.6326 4.49937 14.7598 4.55205 14.8536 4.64581C14.9473 4.73958 15 4.86676 15 4.99937V4.99937Z" fill="#2A2A2A"/>
</g>
<defs>
<filter id="filter0_d_546_7374" x="-3.00098" y="0.498047" width="22.001" height="17.002" filterUnits="userSpaceOnUse" color-interpolation-filters="sRGB">
<feFlood flood-opacity="0" result="BackgroundImageFix"/>
<feColorMatrix in="SourceAlpha" type="matrix" values="0 0 0 0 0 0 0 0 0 0 0 0 0 0 0 0 0 0 127 0" result="hardAlpha"/>
<feOffset dy="4"/>
<feGaussianBlur stdDeviation="2"/>
<feComposite in2="hardAlpha" operator="out"/>
<feColorMatrix type="matrix" values="0 0 0 0 0 0 0 0 0 0 0 0 0 0 0 0 0 0 0.25 0"/>
<feBlend mode="normal" in2="BackgroundImageFix" result="effect1_dropShadow_546_7374"/>
<feBlend mode="normal" in="SourceGraphic" in2="effect1_dropShadow_546_7374" result="shape"/>
</filter>
</defs>
</svg>
